<svg width="123" height="108" viewBox="0 0 123 108" fill="none" xmlns="http://www.w3.org/2000/svg">
<g clip-path="url(#clip0_2002_2)">
<path fill-rule="evenodd" clip-rule="evenodd" d="M60.83 17.1799C68.83 8.82994 74.45 1.60994 86.83 0.179941C110 -2.46006 131.27 21.2599 119.57 44.6099C116.24 51.2599 109.46 59.1699 101.96 66.9299C93.73 75.4499 84.62 83.7999 78.24 90.1299L60.84 107.39L46.46 93.5499C29.16 76.8899 0.999959 55.9199 -4.06001e-05 29.9399C-0.630041 11.7399 13.73 0.079941 30.25 0.289941C45.01 0.489941 51.25 7.82994 60.83 17.1799Z" fill="#665A5B"/>
<path d="M86.8296 0.18031C110 -2.45969 131.27 21.26 119.57 44.61C116.24 51.26 109.46 59.1704 101.96 66.9303C93.7305 75.4503 84.6197 83.7995 78.2397 90.1295L60.8403 107.39L46.4594 93.5504C29.1595 76.8905 0.999542 55.92 -0.000529481 29.9401C-0.630524 11.7402 13.7297 0.0799029 30.2495 0.289685C45.0095 0.489685 51.2496 7.83031 60.8295 17.1803C68.8295 8.8304 74.4498 1.61042 86.8296 0.18031ZM112.358 15.7545C106.589 8.47573 97.1253 4.03952 87.396 5.14808C77.1652 6.33237 72.8231 11.8894 64.4399 20.6393L60.9487 24.2828L57.3374 20.7584C52.3165 15.8581 48.8212 12.1699 44.7338 9.48011C40.9285 6.97601 36.6086 5.37677 30.1821 5.28968V5.28871C16.0367 5.1109 4.49206 14.8774 4.99654 29.7477L5.02096 30.2741C5.6282 41.3225 11.9223 51.7941 20.8667 61.9323C30.0346 72.3239 40.8751 81.2308 49.9272 89.9479L60.7866 100.399L74.7182 86.5797C81.356 79.994 90.1276 71.982 98.3637 63.4557L98.3647 63.4547C105.865 55.6947 112.147 48.2665 115.099 42.3707L115.1 42.3698C119.987 32.6159 118.034 22.9174 112.358 15.7545Z" fill="black" fill-opacity="0.3"/>
<path d="M30.2496 0.290139C45.0095 0.490137 51.2498 7.82989 60.8297 17.1798C60.8866 17.1204 60.9429 17.0604 60.9996 17.0011V107.232L60.8404 107.39L46.4595 93.5499C29.1595 76.8899 0.999576 55.9194 -0.00041987 29.9396C-0.630212 11.7399 13.7299 0.0803355 30.2496 0.290139Z" fill="#ED1B24"/>
<path d="M30.2496 0.289161C45.0094 0.489184 51.2498 7.8299 60.8297 17.1798C60.8866 17.1203 60.9429 17.0604 60.9996 17.0011V24.2286L60.9488 24.2823L57.3375 20.7579C52.3167 15.8576 48.8212 12.1693 44.734 9.47959C40.9287 6.97556 36.6086 5.37625 30.1822 5.28916C16.0369 5.11135 4.49243 14.8772 4.99665 29.7472L5.02106 30.2735C5.6283 41.3219 11.9226 51.7936 20.8668 61.9317C30.0346 72.3233 40.8753 81.2303 49.9273 89.9474L60.7867 100.399L60.9996 100.187V107.232L60.8404 107.39L46.4595 93.5499C29.1595 76.89 0.999644 55.9194 -0.000423566 29.9396C-0.630156 11.74 13.7299 0.0793812 30.2496 0.289161Z" fill="black" fill-opacity="0.3"/>
</g>
<defs>
<clipPath id="clip0_2002_2">
<rect width="122.88" height="107.39" fill="white"/>
</clipPath>
</defs>
</svg>
